<svg height="432pt" viewBox="-88 0 432 432.69346" width="432pt" xmlns="http://www.w3.org/2000/svg"><path d="m67.675781 57.621094c-11.699219 0-23.144531-4.472656-31.902343-12.871094-1.621094-1.554688-2.375-3.808594-2.011719-6.023438 2.769531-16.980468 14.601562-30.902343 30.882812-36.339843 16.28125-5.445313 34.105469-1.417969 46.519531 10.492187 1.621094 1.550782 2.375 3.804688 2.011719 6.019532-2.765625 16.976562-14.597656 30.898437-30.878906 36.339843-4.796875 1.601563-9.730469 2.382813-14.621094 2.382813zm-19.636719-20.316406c8.496094 6.488281 19.660157 8.414062 29.933594 4.984374 10.277344-3.433593 18.035156-11.679687 20.929688-21.96875-8.503906-6.492187-19.664063-8.414062-29.929688-4.984374-10.277344 3.429687-18.039062 11.675781-20.933594 21.96875zm0 0"/><path d="m128.21875 432.695312c-70.507812 0-127.871094-57.367187-127.871094-127.878906 0-30.433594 12.246094-61.574218 24.09375-91.691406 11.640625-29.609375 23.683594-60.226562 23.683594-89.421875 0-44.164063 35.933594-80.09375 80.09375-80.09375 44.164062 0 80.09375 35.929687 80.09375 80.09375 0 29.195313 12.046875 59.8125 23.6875 89.421875 11.847656 30.117188 24.09375 61.257812 24.09375 91.691406 0 70.511719-57.363281 127.878906-127.875 127.878906zm0-375.433593c-36.636719 0-66.4375 29.804687-66.4375 66.441406 0 31.785156-12.523438 63.625-24.636719 94.417969-11.902343 30.265625-23.144531 58.851562-23.144531 86.695312 0 62.984375 51.238281 114.222656 114.21875 114.222656 62.984375 0 114.222656-51.238281 114.222656-114.222656 0-27.84375-11.242187-56.425781-23.144531-86.695312-12.113281-30.792969-24.636719-62.632813-24.636719-94.417969 0-36.636719-29.800781-66.441406-66.441406-66.441406zm0 0"/><path d="m128.21875 371.253906c-37.640625 0-68.265625-30.625-68.265625-68.265625 0-37.105469 30.449219-81.921875 68.265625-81.921875s68.269531 44.816406 68.269531 81.921875c0 37.640625-30.625 68.265625-68.269531 68.265625zm0-136.535156c-29.410156 0-54.613281 37.539062-54.613281 68.269531 0 30.113281 24.5 54.613281 54.613281 54.613281 30.117188 0 54.613281-24.5 54.613281-54.613281 0-30.730469-25.199219-68.269531-54.613281-68.269531zm0 0"/><path d="m87.261719 307.539062c-3.769531 0-6.828125-3.058593-6.828125-6.828124 0-26.308594 20.871094-56.890626 47.785156-56.890626 3.773438 0 6.828125 3.058594 6.828125 6.828126 0 3.769531-3.054687 6.828124-6.828125 6.828124-18.378906 0-34.132812 23.773438-34.132812 43.234376 0 3.769531-3.054688 6.828124-6.824219 6.828124zm0 0"/><path d="m137.769531 50.4375h-13.652343c0-29.820312 15.027343-45.1875 15.667968-45.828125l9.652344 9.65625-4.828125-4.828125 4.867187 4.792969c-.480468.492187-11.707031 12.347656-11.707031 36.207031zm0 0"/><path d="m134.589844 32.691406c-1.675782 0-3.355469-.613281-4.664063-1.839844-.386719-.308593-5.957031-4.53125-20.816406-4.53125-3.773437 0-6.828125-3.054687-6.828125-6.828124 0-3.769532 3.054688-6.824219 6.828125-6.824219 20.882813 0 28.910156 6.972656 30.308594 8.371093 2.664062 2.664063 2.664062 6.988282 0 9.652344-1.335938 1.332032-3.082031 2-4.828125 2zm0 0"/><path d="m128.21875 166.453125c-16.34375 0-31.339844-5.761719-40.113281-15.414063-2.535157-2.792968-2.328125-7.109374.460937-9.644531 2.796875-2.535156 7.117188-2.324219 9.640625.460938 6.136719 6.75 17.636719 10.945312 30.011719 10.945312 12.238281 0 23.671875-4.125 29.84375-10.765625 2.570312-2.761718 6.890625-2.914062 9.644531-.355468 2.761719 2.566406 2.921875 6.886718.355469 9.648437-8.800781 9.472656-23.691406 15.125-39.84375 15.125zm0 0"/><path d="m94.085938 108.425781c0 5.65625-4.582032 10.242188-10.238282 10.242188s-10.242187-4.585938-10.242187-10.242188 4.585937-10.238281 10.242187-10.238281 10.238282 4.582031 10.238282 10.238281zm0 0"/><path d="m182.832031 108.425781c0 5.65625-4.582031 10.242188-10.238281 10.242188s-10.238281-4.585938-10.238281-10.242188 4.582031-10.238281 10.238281-10.238281 10.238281 4.582031 10.238281 10.238281zm0 0"/></svg>